<svg width="18" height="15" viewBox="0 0 18 15" fill="none" xmlns="http://www.w3.org/2000/svg">
<path d="M10.9581 0.994324L1.73143 8.70901C1.57118 8.83758 1.45312 8.99794 1.38854 9.17509L0.0480644 13.7055C-0.0128197 13.8774 -0.015859 14.06 0.0389322 14.2334C0.0939427 14.4067 0.204835 14.5644 0.359862 14.6892C0.597732 14.8907 0.924117 15.003 1.26372 14.9999L1.54421 14.9481L6.99917 13.809H6.99939C7.2103 13.7649 7.40381 13.6755 7.56036 13.5502L16.8182 5.83552C17.5812 5.18758 18.0058 4.31593 17.9999 3.40975C17.9941 2.50344 17.5583 1.63553 16.7871 0.994477C16.0109 0.357396 14.9637 0 13.8726 0C12.7814 0 11.7342 0.357373 10.958 0.994477L10.9581 0.994324ZM15.0415 2.47004L15.0417 2.46986C15.3424 2.72611 15.5107 3.06991 15.5107 3.42787C15.5107 3.78578 15.3424 4.12944 15.0417 4.38568L14.9793 4.43751L12.6726 2.52174L12.735 2.46991C13.035 2.20716 13.4521 2.05837 13.8883 2.05837C14.3244 2.05837 14.7415 2.20717 15.0418 2.46991L15.0415 2.47004ZM6.03301 11.8675L2.97828 12.5147L3.72645 9.97767L10.8958 3.97161L13.2026 5.88738L6.03301 11.8675Z" fill="#656565"/>
</svg>
