<svg width="17" height="16" viewBox="0 0 17 16" fill="none" xmlns="http://www.w3.org/2000/svg">
<path fill-rule="evenodd" clip-rule="evenodd" d="M6.04785 1.99043V3.0622H10.1053V1.99043H6.04785ZM12.0957 3.0622V0.91866C12.0957 0.411298 11.6844 0 11.177 0H4.97608C4.46871 0 4.05742 0.411298 4.05742 0.91866V3.0622H3.0622H1.07177H0.15311C0.0685497 3.0622 0 3.13075 0 3.21531V4.89952C0 4.98408 0.0685497 5.05263 0.15311 5.05263H1.07177V15.0813C1.07177 15.5887 1.48307 16 1.99043 16H14.1627C14.67 16 15.0813 15.5887 15.0813 15.0813V5.05263H15.9234C16.008 5.05263 16.0766 4.98408 16.0766 4.89952V3.21531C16.0766 3.13075 16.008 3.0622 15.9234 3.0622H15.0813H13.0909H12.0957ZM4.05742 5.05263H3.0622V14.0096H13.0909V5.05263H12.0957H10.1053H6.04785H4.05742ZM5.05263 6.96651H7.11962V13.0144H5.05263V6.96651ZM11.1005 6.96651H9.03349V13.0144H11.1005V6.96651Z" fill="black"/>
</svg>
